<?xml version="1.0" encoding="iso-8859-1"?>
<!DOCTYPE svg PUBLIC "-//W3C//DTD SVG 1.1//EN" "http://www.w3.org/Graphics/SVG/1.1/DTD/svg11.dtd">
<svg 
 version="1.1" xmlns="http://www.w3.org/2000/svg" xmlns:xlink="http://www.w3.org/1999/xlink" x="0px" y="0px" width="512px"
	 height="512px" viewBox="0 0 512 512" style="enable-background:new 0 0 512 512;" xml:space="preserve"
><g id="9f7e7d65bebc9157b4431a86ec0d7439"><g></g><g fill="#fefdfb"><path style="display: inline;" d="M483.111,141.498v351.076c0,10.409-8.518,18.926-18.927,18.926H104.593
		c-10.409,0-18.926-8.517-18.926-18.926v-79.016h37.852v60.09h321.74V151.907h-86.109c-15.096,0-27.446-12.352-27.446-27.446V38.352
		H123.519v170.333H85.667V19.426c0-10.409,8.517-18.926,18.926-18.926h236.101v0.065c3.017,0.279,6.587,2.24,10.42,6.071
		l125.861,125.861c3.246,3.246,5.153,6.307,5.833,9.001H483.111z M369.556,246.537v129.17c0,10.408-8.517,18.926-18.927,18.926
		H47.814c-10.409,0-18.926-8.518-18.926-18.926v-129.17c0-10.409,8.517-18.926,18.926-18.926h302.814
		C361.039,227.611,369.556,236.128,369.556,246.537z M144.377,325.908c0-5.541-1.09-10.377-3.271-14.513
		c-2.18-4.133-4.884-7.29-8.106-9.471c-3.228-2.181-6.725-4.199-10.493-6.062c-3.771-1.863-7.269-3.408-10.492-4.636
		c-3.227-1.228-5.929-2.813-8.108-4.769c-2.181-1.951-3.271-4.247-3.271-6.883c0-3.268,1.34-5.833,4.02-7.696
		c2.678-1.862,6.473-2.794,11.378-2.794c4.45,0,8.494,0.865,12.128,2.587c3.634,1.727,5.86,2.591,6.678,2.591
		c2.181,0,3.905-1.078,5.179-3.241c1.27-2.163,1.907-4.255,1.907-6.276c0-2.148-0.934-4.011-2.795-5.597
		c-1.862-1.586-4.271-2.754-7.221-3.5c-2.953-0.743-5.746-1.279-8.38-1.608c-2.638-0.325-5.135-0.492-7.496-0.492
		c-4.179,0-8.131,0.488-11.854,1.453c-3.727,0.969-7.222,2.492-10.493,4.565c-3.27,2.073-5.883,4.979-7.834,8.712
		c-1.955,3.734-2.929,8.048-2.929,12.935c0,4.358,0.793,8.243,2.384,11.651c1.587,3.404,3.678,6.129,6.267,8.172
		c2.59,2.045,5.45,3.886,8.585,5.52c3.135,1.638,6.245,3.116,9.336,4.432c3.086,1.316,5.927,2.68,8.517,4.085
		c2.587,1.412,4.676,3.183,6.268,5.315c1.587,2.137,2.384,4.565,2.384,7.289c0,3.908-1.454,6.861-4.36,8.861
		c-2.909,1.996-6.54,2.998-10.9,2.998c-3.181,0-6.088-0.57-8.722-1.701c-2.636-1.135-4.656-2.384-6.064-3.752
		c-1.408-1.367-2.861-2.621-4.359-3.752c-1.499-1.131-2.841-1.7-4.021-1.7c-2,0-3.794,1.072-5.382,3.205
		c-1.591,2.133-2.386,4.247-2.386,6.335c0,4.182,3.088,8.041,9.267,11.582c6.177,3.545,13.579,5.315,22.212,5.315
		c9.72,0,17.555-2.528,23.506-7.593C141.4,342.416,144.377,335.227,144.377,325.908z M232.948,285.439
		c0-10.813-2.907-18.716-8.72-23.713c-5.814-4.995-13.583-7.494-23.303-7.494c-9.722,0-17.466,2.499-23.232,7.494
		c-5.77,4.997-8.653,12.9-8.653,23.713v38.018c0,18.623,8.721,28.888,26.164,30.795v8.857c0,1.726,0.565,3.086,1.702,4.088
		c1.135,0.998,2.475,1.497,4.02,1.497c1.544,0,2.861-0.499,3.952-1.497c1.09-1.002,1.636-2.362,1.636-4.088v-8.857
		c8.176-0.909,14.625-3.859,19.349-8.856c4.725-4.997,7.086-12.31,7.086-21.938V285.439z M317.975,346.076
		c0-2.089-0.473-3.904-1.427-5.453c-0.954-1.541-2.247-2.313-3.885-2.313h-33.25v-78.628c0-1.814-0.865-3.179-2.588-4.088
		c-1.729-0.905-3.814-1.36-6.269-1.36c-2.455,0-4.543,0.455-6.27,1.36c-1.727,0.91-2.588,2.274-2.588,4.088v88.574
		c0,1.727,0.77,3.091,2.314,4.089s3.364,1.497,5.452,1.497h43.197c1.638,0,2.931-0.769,3.885-2.314
		C317.502,349.982,317.975,348.168,317.975,346.076z M200.926,269.766c-9.448,0-14.172,5.227-14.172,15.674v38.018
		c0,7.902,2.814,12.764,8.45,14.578v-7.223c0-1.814,0.565-3.179,1.702-4.088c1.135-0.906,2.475-1.36,4.02-1.36
		c1.544,0,2.861,0.454,3.952,1.36c1.09,0.909,1.636,2.273,1.636,4.088v7.223c5.813-1.906,8.722-6.768,8.722-14.578v-38.018
		c0-5.18-1.252-9.086-3.748-11.723C208.988,271.086,205.467,269.766,200.926,269.766z"></path></g></g></svg>